<svg xmlns="http://www.w3.org/2000/svg" id="Camada_1" viewBox="0 0 384.93 356.89">
    <path
        d="m293.62 283.86-106.04 61.22a51.039 51.039 0 0 1-51.02 0L30.52 283.86a51.012 51.012 0 0 1-25.51-44.19V117.22c0-18.23 9.73-35.07 25.51-44.19l106.03-61.22a51.039 51.039 0 0 1 51.02 0l106.04 61.22a51.012 51.012 0 0 1 25.51 44.19v122.45c0 18.23-9.73 35.07-25.51 44.19Z"
        fill="#f9f9f9" />
    <path
        d="M162.06 356.89c-9.69 0-19.37-2.49-28.01-7.48L28.01 288.19C10.73 278.21 0 259.62 0 239.67V117.22C0 97.27 10.73 78.68 28.01 68.7L134.05 7.48c17.28-9.98 38.75-9.98 56.02 0L296.11 68.7c17.28 9.98 28.01 28.57 28.01 48.52v122.45c0 19.95-10.74 38.54-28.01 48.52l-106.04 61.22c-8.64 4.99-18.32 7.48-28.01 7.48Zm0-346.89c-7.96 0-15.91 2.05-23.01 6.15L33.01 77.37C18.82 85.57 10 100.84 10 117.23v122.45c0 16.39 8.82 31.66 23.01 39.86l106.04 61.22c14.19 8.2 31.83 8.2 46.02 0l106.04-61.22c14.19-8.19 23.01-23.47 23.01-39.86V117.23c0-16.39-8.82-31.66-23.01-39.86L185.07 16.15c-7.1-4.1-15.05-6.15-23.01-6.15Z"
        fill="#d9d9d9" />
    <path
        d="M216.78 200.41c-1.36.52-16.3 22.77-40.61 30.45-6.49 3.75-10.25 5.74-16.76 9.08 3.51.01 7.18-.23 10.56-.44 3.47-.22 7.02-.34 10.38-.78 3.28-.43 6.63-.58 9.82-1.1 3.37-.54 6.28-.95 9.53-1.57 17.7-3.36 45.11-18.42 53.74-34.36 1.24-2.29 2.58-5.88 1.54-8.82-1.02-2.9-3.32-3.89-6.28-4.83-5.1-1.61-13.18-2.44-18.82-3.03-.6 3.72-3.38 6.43-5.21 8.54-.92 1.06-6.46 5.85-7.89 6.86Zm-123.5 4.78c-.44.48-3.95 19.34-3.2 21.58-2.67-1.09-16.65-9.83-17.88-9.56-1.83.95-9.16 6.96-7.99 10.02 1.38 3.6 12.78 6.54 16.69 7.32 3.35.66 2.14.8 4.18-.94 2.19-1.84 4.26-3.5 6.74-5.29 8.49-6.11 20.46-13.09 29.83-18.27 2.54-1.41 5.16-2.9 7.8-4.23 5.37-2.7 10.5-5.62 15.92-8.14 13.75-6.39 19.73-9.53 33.7-14.26-2.36-.46-21.57 1.25-24.61 1.59-6.29.96-14.69 2.85-21.77 4.83-14.39 4.04-25.99 9.91-39.42 15.33Z"
        fill="#dadee0" />
    <path
        d="M172.62 212.6c1.16-2.35 7.3-13.14 7.34-14.27-6.23-.47-17.64-.65-24.38-.75-3.7-.02-3.8.14-6.42 1.56l-20.43 11.1c11.4.96 32.2 2.07 43.89 2.36Z"
        fill="#dadee0" />
    <path
        d="M64.66 246.55H74v10.44h10.2v-10.44h9.38v29.85H84.2v-12.08H74v12.08h-9.34v-29.85Zm35.48 0h9.36v29.85h-9.36v-29.85Zm16.02 0h15.51c3.38 0 5.91.79 7.6 2.38 1.68 1.58 2.52 3.85 2.52 6.78s-.92 5.37-2.75 7.07c-1.83 1.7-4.64 2.55-8.4 2.55h-5.1v11.08h-9.38v-29.85Zm9.38 12.73h2.29c1.8 0 3.06-.31 3.78-.93.73-.62 1.1-1.41 1.1-2.37s-.32-1.74-.95-2.38c-.63-.65-1.81-.98-3.56-.98h-2.66v6.66Zm41.25 4.92 8.18 2.46c-.55 2.27-1.41 4.15-2.59 5.68a11.287 11.287 0 0 1-4.4 3.44c-1.75.78-3.97 1.16-6.68 1.16-3.28 0-5.96-.46-8.04-1.41-2.09-.94-3.89-2.6-5.4-4.98-1.51-2.37-2.27-5.42-2.27-9.12 0-4.94 1.33-8.75 3.98-11.4 2.67-2.66 6.43-3.98 11.29-3.98 3.8 0 6.8.76 8.97 2.29 2.18 1.52 3.8 3.86 4.86 7.01l-8.24 1.81c-.3-.91-.59-1.58-.91-2a5.326 5.326 0 0 0-1.92-1.62c-.76-.39-1.6-.57-2.54-.57-2.11 0-3.73.83-4.86 2.52-.85 1.25-1.28 3.21-1.28 5.89 0 3.32.51 5.59 1.52 6.81 1.02 1.23 2.46 1.84 4.29 1.84s3.13-.5 4.05-1.49c.92-.99 1.58-2.42 1.99-4.32Zm11.53-2.71c0-4.87 1.38-8.67 4.12-11.38 2.75-2.72 6.58-4.08 11.48-4.08s8.9 1.34 11.62 4c2.72 2.67 4.08 6.41 4.08 11.21 0 3.49-.59 6.35-1.78 8.59-1.19 2.23-2.91 3.97-5.15 5.22-2.24 1.24-5.04 1.85-8.4 1.85s-6.22-.53-8.46-1.6c-2.22-1.07-4.04-2.77-5.43-5.1-1.38-2.32-2.08-5.23-2.08-8.71Zm9.34.05c0 3.01.56 5.18 1.7 6.5 1.13 1.32 2.68 1.97 4.63 1.97s3.56-.64 4.66-1.93c1.1-1.3 1.65-3.61 1.65-6.94 0-2.81-.58-4.87-1.73-6.16-1.15-1.3-2.7-1.95-4.67-1.95s-3.39.65-4.53 1.98c-1.14 1.32-1.71 3.5-1.71 6.53Zm26.89-14.99h12.28l4.74 18.17 4.72-18.17h12.23v29.85h-7.63v-22.76l-5.91 22.76h-6.9l-5.89-22.76v22.76h-7.64v-29.85Z"
        fill="#9ca5ac" />
    <path
        d="M159.24 233.71c1.68-.03 7.05-.92 8.92-1.25 16.15-2.98 24.84-6.03 36.07-15.88 19.07-15.42 47.39-88.21 45.84-117.86-.26-5.17-1.45-12.3-4.63-16.57-1.6-2.16-4.39-4.14-6.68-5.5-6.43-3.84-15.7-6.15-20.51-7.11.62 10.01-5.63 36.63-12.52 57.82-23.53-2.02-51.31-3.42-75.03-2.75-1.1.42-13.98 33.88-16.1 40.22 25.59 2.37 50.7 3.5 76.34 4.28-2.35 12.37-22.85 52.06-31.7 64.6Z"
        fill="#0076d6" />
    <path
        d="M90.08 226.77c1-24.95 19.82-70.8 29.66-93.75 9.23-21.5 20.17-44.7 33.57-63.72-2.34.16-9.99 2.14-12.58 2.86-6.64 1.83-15.95 5.34-21.31 9.33-23.7 17.63-67.79 101.99-53.02 129.67 4.19 7.87 16 12.49 23.67 15.62Z"
        fill="#0076d6" />
    <circle cx="324.42" cy="289.21" r="55.51" fill="#f9f9f9" />
    <path
        d="M324.42 349.72c-33.36 0-60.51-27.14-60.51-60.51s27.14-60.51 60.51-60.51 60.51 27.14 60.51 60.51-27.14 60.51-60.51 60.51Zm0-111.01c-27.85 0-50.51 22.66-50.51 50.51s22.66 50.51 50.51 50.51 50.51-22.66 50.51-50.51-22.66-50.51-50.51-50.51Z"
        fill="#d9d9d9" />
    <path
        d="M290.44 277.04h20.76v5.35h-13v3.98h12.05v5.11H298.2v4.94h13.37v5.68h-21.14v-25.07Zm25.41 25.07v-25.07h12.91c2.4 0 4.22.21 5.49.62 1.26.41 2.28 1.17 3.06 2.28.78 1.11 1.16 2.47 1.16 4.06 0 1.39-.3 2.59-.89 3.6-.59 1.01-1.41 1.83-2.45 2.46-.66.4-1.57.73-2.72.99.92.31 1.59.62 2.02.92.28.21.7.65 1.24 1.32s.9 1.19 1.08 1.56l3.75 7.26h-8.75l-4.14-7.66c-.53-.99-.99-1.64-1.4-1.93-.56-.39-1.19-.58-1.9-.58h-.68v10.17h-7.78Zm7.78-14.91h3.27c.35 0 1.04-.11 2.05-.34.51-.1.93-.36 1.26-.79s.49-.91.49-1.45c0-.81-.25-1.43-.77-1.86-.51-.43-1.47-.65-2.89-.65h-3.41v5.1Zm19.33-10.16h12.88c2.8 0 4.9.67 6.3 2 1.4 1.33 2.09 3.23 2.09 5.69s-.76 4.51-2.28 5.93c-1.52 1.43-3.84 2.14-6.97 2.14h-4.24v9.3h-7.78v-25.07Zm7.78 10.69h1.9c1.5 0 2.54-.26 3.15-.78.6-.52.91-1.18.91-1.99s-.26-1.45-.79-2-1.51-.82-2.96-.82h-2.21v5.59Z"
        fill="#9ca5ac" />
</svg>